<svg width="436" height="436" viewBox="0 0 436 436" fill="none" xmlns="http://www.w3.org/2000/svg">
<g filter="url(#filter0_dd_1_22)">
<rect x="18" y="10" width="400" height="400" rx="80" fill="url(#paint0_linear_1_22)"/>
<g filter="url(#filter1_di_1_22)">
<path fill-rule="evenodd" clip-rule="evenodd" d="M269 88C269 81.9249 264.075 77 258 77H200C193.925 77 189 81.9249 189 88V125C189 131.075 184.075 136 178 136H126C119.925 136 115 140.925 115 147V225C115 231.075 119.925 236 126 236H184C190.075 236 195 240.925 195 247V333C195 339.075 199.925 344 206 344H310C316.075 344 321 339.075 321 333V229C321 222.925 316.075 218 310 218H226C219.925 218 215 213.075 215 207V168C215 161.925 219.925 157 226 157H258C264.075 157 269 152.075 269 146V88Z" fill="#68D7A9"/>
</g>
<g filter="url(#filter2_dd_1_22)">
<path d="M249.25 300.5H259V310.25H229.75V300.5H239.5V290.75H249.25V300.5ZM288.25 300.5V290.75H278.5V300.5H288.25ZM229.75 281V290.75H239.5V281H229.75ZM268.75 310.25H278.5V300.5H268.75V310.25ZM278.5 271.25V281H288.25V251.75H278.5V261.5H268.75V271.25H278.5ZM268.75 281V271.25H259V261.5H268.75V251.75H239.5V261.5H229.75V271.25H239.5V281H249.25V290.75H259V300.5H268.75V290.75H278.5V281H268.75Z" fill="#E4F0FB"/>
</g>
</g>
<defs>
<filter id="filter0_dd_1_22" x="0" y="0" width="436" height="436" filterUnits="userSpaceOnUse" color-interpolation-filters="sRGB">
<feFlood flood-opacity="0" result="BackgroundImageFix"/>
<feColorMatrix in="SourceAlpha" type="matrix" values="0 0 0 0 0 0 0 0 0 0 0 0 0 0 0 0 0 0 127 0" result="hardAlpha"/>
<feOffset dy="4"/>
<feGaussianBlur stdDeviation="2"/>
<feColorMatrix type="matrix" values="0 0 0 0 0 0 0 0 0 0 0 0 0 0 0 0 0 0 0.3 0"/>
<feBlend mode="normal" in2="BackgroundImageFix" result="effect1_dropShadow_1_22"/>
<feColorMatrix in="SourceAlpha" type="matrix" values="0 0 0 0 0 0 0 0 0 0 0 0 0 0 0 0 0 0 127 0" result="hardAlpha"/>
<feMorphology radius="6" operator="dilate" in="SourceAlpha" result="effect2_dropShadow_1_22"/>
<feOffset dy="8"/>
<feGaussianBlur stdDeviation="6"/>
<feColorMatrix type="matrix" values="0 0 0 0 0 0 0 0 0 0 0 0 0 0 0 0 0 0 0.15 0"/>
<feBlend mode="normal" in2="effect1_dropShadow_1_22" result="effect2_dropShadow_1_22"/>
<feBlend mode="normal" in="SourceGraphic" in2="effect2_dropShadow_1_22" result="shape"/>
</filter>
<filter id="filter1_di_1_22" x="111" y="77" width="214" height="275" filterUnits="userSpaceOnUse" color-interpolation-filters="sRGB">
<feFlood flood-opacity="0" result="BackgroundImageFix"/>
<feColorMatrix in="SourceAlpha" type="matrix" values="0 0 0 0 0 0 0 0 0 0 0 0 0 0 0 0 0 0 127 0" result="hardAlpha"/>
<feOffset dy="4"/>
<feGaussianBlur stdDeviation="2"/>
<feComposite in2="hardAlpha" operator="out"/>
<feColorMatrix type="matrix" values="0 0 0 0 0 0 0 0 0 0 0 0 0 0 0 0 0 0 0.25 0"/>
<feBlend mode="normal" in2="BackgroundImageFix" result="effect1_dropShadow_1_22"/>
<feBlend mode="normal" in="SourceGraphic" in2="effect1_dropShadow_1_22" result="shape"/>
<feColorMatrix in="SourceAlpha" type="matrix" values="0 0 0 0 0 0 0 0 0 0 0 0 0 0 0 0 0 0 127 0" result="hardAlpha"/>
<feOffset dx="1" dy="4"/>
<feGaussianBlur stdDeviation="7.85"/>
<feComposite in2="hardAlpha" operator="arithmetic" k2="-1" k3="1"/>
<feColorMatrix type="matrix" values="0 0 0 0 0.0631597 0 0 0 0 0.26215 0 0 0 0 0.445833 0 0 0 0.51 0"/>
<feBlend mode="normal" in2="shape" result="effect2_innerShadow_1_22"/>
</filter>
<filter id="filter2_dd_1_22" x="209" y="235" width="100" height="100" filterUnits="userSpaceOnUse" color-interpolation-filters="sRGB">
<feFlood flood-opacity="0" result="BackgroundImageFix"/>
<feColorMatrix in="SourceAlpha" type="matrix" values="0 0 0 0 0 0 0 0 0 0 0 0 0 0 0 0 0 0 127 0" result="hardAlpha"/>
<feOffset dy="1"/>
<feGaussianBlur stdDeviation="1.5"/>
<feColorMatrix type="matrix" values="0 0 0 0 0 0 0 0 0 0 0 0 0 0 0 0 0 0 0.3 0"/>
<feBlend mode="normal" in2="BackgroundImageFix" result="effect1_dropShadow_1_22"/>
<feColorMatrix in="SourceAlpha" type="matrix" values="0 0 0 0 0 0 0 0 0 0 0 0 0 0 0 0 0 0 127 0" result="hardAlpha"/>
<feMorphology radius="3" operator="dilate" in="SourceAlpha" result="effect2_dropShadow_1_22"/>
<feOffset dy="4"/>
<feGaussianBlur stdDeviation="4"/>
<feColorMatrix type="matrix" values="0 0 0 0 0 0 0 0 0 0 0 0 0 0 0 0 0 0 0.15 0"/>
<feBlend mode="normal" in2="effect1_dropShadow_1_22" result="effect2_dropShadow_1_22"/>
<feBlend mode="normal" in="SourceGraphic" in2="effect2_dropShadow_1_22" result="shape"/>
</filter>
<linearGradient id="paint0_linear_1_22" x1="752" y1="-330" x2="-134" y2="576.5" gradientUnits="userSpaceOnUse">
<stop stop-color="#8098AD"/>
<stop offset="0.238706" stop-color="#8098AD"/>
<stop offset="1" stop-color="#1B1E28"/>
</linearGradient>
</defs>
</svg>
